<svg xmlns="http://www.w3.org/2000/svg" xmlns:xlink="http://www.w3.org/1999/xlink" width="30" height="30"><rect id="backgroundrect" width="100%" height="100%" x="0" y="0" fill="none" stroke="none" class="" style=""/>
    <defs>
        <circle id="b" cx="15" cy="15" r="15"/>
        <filter id="a" width="266.7%" height="266.7%" x="-83.3%" y="-66.7%" filterUnits="objectBoundingBox">
            <feOffset dy="5" in="SourceAlpha" result="shadowOffsetOuter1"/>
            <feGaussianBlur in="shadowOffsetOuter1" result="shadowBlurOuter1" stdDeviation="7.5"/>
            <feColorMatrix in="shadowBlurOuter1" values="0 0 0 0 0 0 0 0 0 0 0 0 0 0 0 0 0 0 0.1 0"/>
        </filter>
    </defs>
    
<g class="currentLayer" style=""><title>Layer 1</title><g fill="none" fill-rule="evenodd" id="svg_1" class="">
        <g id="svg_2">
            <use fill="#000" filter="url(#a)" xlink:href="#b" y="-0.1694905161857605" x="-0.25423669815063477" id="svg_3"/>
            <use fill="#FFF" xlink:href="#b" y="-0.1694905161857605" x="-0.25423669815063477" id="svg_4"/>
        </g>
        <path fill="#D4D8D9" d="M21.46376330184937,14.26950948381424 a0.8720000000000002,0.8720000000000002 0 0 0 0.23600000000000004,-0.922 a0.915,0.915 0 0 0 -0.7530000000000002,-0.6100000000000002 l-3.1470000000000002,-0.4410000000000001 a0.4130000000000001,0.4130000000000001 0 0 1 -0.3100000000000001,-0.21700000000000005 L16.082763301849365,9.33050948381424 A0.931,0.931 0 0 0 15.245763301849365,8.83050948381424 a0.933,0.933 0 0 0 -0.8360000000000002,0.501 l-1.407,2.748 a0.4100000000000001,0.4100000000000001 0 0 1 -0.3100000000000001,0.21700000000000005 l-3.148,0.4400000000000001 a0.915,0.915 0 0 0 -0.7530000000000002,0.6110000000000002 c-0.11000000000000003,0.3290000000000001 -0.020000000000000007,0.6810000000000004 0.23600000000000004,0.922 l2.278,2.138 a0.3900000000000001,0.3900000000000001 0 0 1 0.11800000000000004,0.3510000000000001 l-0.538,3.02 a0.8600000000000002,0.8600000000000002 0 0 0 0.20400000000000001,0.7280000000000002 a0.9660000000000002,0.9660000000000002 0 0 0 1.15,0.21900000000000006 l2.814,-1.4260000000000002 a0.4340000000000001,0.4340000000000001 0 0 1 0.3840000000000001,0 l2.816,1.4260000000000002 a0.9480000000000002,0.9480000000000002 0 0 0 1.149,-0.21800000000000005 a0.8600000000000002,0.8600000000000002 0 0 0 0.203,-0.7300000000000002 l-0.537,-3.019 a0.3900000000000001,0.3900000000000001 0 0 1 0.11800000000000004,-0.3510000000000001 l2.277,-2.138 z" id="svg_5"/>
    </g></g></svg>